<?xml version="1.0" standalone="no"?>
<!DOCTYPE svg PUBLIC "-//W3C//DTD SVG 20010904//EN"
 "http://www.w3.org/TR/2001/REC-SVG-20010904/DTD/svg10.dtd">
<svg version="1.0" xmlns="http://www.w3.org/2000/svg"
 width="165.000000pt" height="150.000000pt" viewBox="0 0 165.000000 150.000000"
 preserveAspectRatio="xMidYMid meet">
<metadata>
Created by potrace 1.10, written by Peter Selinger 2001-2011
</metadata>
<g transform="translate(0.000000,150.000000) scale(0.100000,-0.100000)"
fill="#000000" stroke="none">
<path d="M630 1440 c-102 -38 -159 -71 -210 -124 -29 -30 -64 -57 -78 -61 -13
-3 -38 -19 -56 -35 -17 -17 -35 -30 -39 -30 -23 0 -147 -114 -147 -135 0 -3
-11 -21 -24 -38 -14 -18 -28 -44 -31 -60 -4 -15 -11 -30 -16 -33 -12 -7 -12
-251 0 -258 5 -3 12 -18 15 -33 12 -51 40 -97 91 -150 38 -40 55 -51 71 -47
12 3 25 1 28 -5 4 -6 22 -11 39 -11 33 0 63 -24 85 -67 10 -19 8 -26 -20 -53
-36 -37 -66 -50 -111 -50 -75 0 -117 -98 -64 -148 19 -18 35 -22 90 -22 53 0
67 3 67 15 0 11 11 15 40 15 29 0 42 5 50 20 6 12 21 20 35 20 23 0 25 -4 25
-50 l0 -50 91 0 91 0 -4 43 c-2 39 -1 42 22 42 22 0 25 -4 25 -40 l0 -40 80
-3 c78 -2 80 -2 93 25 6 15 12 40 12 55 0 21 6 29 26 34 30 8 166 0 182 -10 7
-4 12 -30 12 -57 l0 -50 72 3 c68 3 73 5 78 28 3 14 12 25 20 25 8 0 17 -11
20 -25 5 -23 11 -25 66 -28 58 -3 61 -1 101 37 30 28 40 45 36 59 -3 14 1 21
13 24 15 3 18 11 16 46 -3 33 0 42 12 42 12 0 16 11 16 44 0 34 4 45 18 48 16
5 18 14 14 69 -2 41 -9 68 -19 76 -9 7 -12 19 -8 32 5 16 1 23 -20 31 -22 8
-24 13 -15 29 14 28 12 66 -4 80 -8 7 -27 35 -41 63 -15 29 -31 59 -36 67 -4
9 -17 36 -29 61 -25 56 -66 129 -84 149 -7 9 -16 29 -20 45 -12 47 -130 208
-183 248 -10 7 -23 22 -29 33 -9 16 -94 70 -139 88 -102 41 -243 48 -325 17z
m202 -50 c23 0 44 -7 55 -19 10 -10 33 -22 50 -26 41 -8 50 -22 27 -40 -19
-14 -16 -17 21 -19 15 -1 20 -7 18 -29 -2 -29 5 -29 40 1 15 14 17 13 17 -7 0
-27 64 -113 92 -124 19 -7 20 -9 4 -25 -22 -25 -21 -45 3 -37 15 4 23 -2 35
-26 9 -18 16 -39 16 -49 0 -9 16 -31 35 -50 19 -19 35 -45 35 -56 0 -12 7 -24
15 -28 8 -3 15 -15 15 -27 0 -12 8 -27 17 -34 15 -11 15 -15 4 -29 -12 -14 -8
-22 27 -60 44 -48 58 -82 48 -120 -4 -16 4 -42 23 -79 l28 -54 -17 -69 c-21
-83 -26 -96 -53 -155 -21 -45 -24 -47 -64 -47 -24 0 -46 4 -49 9 -3 6 -14 3
-26 -8 -12 -10 -23 -13 -25 -8 -21 58 -51 81 -60 46 -6 -24 -32 -25 -43 -1
-10 20 -27 61 -33 80 -3 9 -6 6 -6 -8 -1 -29 -28 -40 -44 -18 -7 9 -24 17 -37
17 -14 -1 -37 -1 -51 -1 -19 0 -28 -6 -32 -21 -4 -15 -11 -20 -22 -15 -11 4
-19 -2 -25 -19 -5 -14 -14 -25 -20 -25 -5 0 -13 0 -17 0 -5 0 -8 9 -8 20 -1
27 -20 25 -20 -2 0 -17 -9 -24 -35 -31 -62 -15 -85 -14 -82 6 4 24 -29 22 -35
-3 -6 -24 -49 -38 -66 -21 -17 17 -40 14 -33 -4 9 -24 -24 -32 -40 -10 -12 15
-12 21 -1 34 14 17 41 78 37 83 -2 2 7 22 19 45 11 23 21 56 21 73 0 23 5 30
19 30 10 0 21 -7 25 -15 3 -8 12 -15 20 -15 7 0 16 -7 20 -15 3 -8 17 -15 31
-15 21 0 26 -4 23 -22 -2 -19 1 -22 22 -20 68 8 85 7 85 -8 0 -15 33 -31 48
-23 4 2 7 15 7 27 0 36 48 42 61 9 5 -13 13 -21 19 -18 14 9 12 21 -6 39 -19
20 -9 39 17 31 10 -4 19 -2 19 4 0 5 6 16 13 23 6 7 21 31 31 53 l19 40 13
-30 13 -30 1 33 c0 22 5 32 16 32 11 0 13 6 9 19 -3 11 -1 22 5 26 6 4 9 21 7
38 -2 18 -2 24 0 14 3 -10 10 -16 16 -14 16 5 21 45 8 61 -15 17 -3 53 20 59
23 6 27 57 5 57 -8 0 -16 -5 -18 -11 -2 -6 -4 9 -5 33 -1 23 -2 50 -2 58 -1 8
1 28 5 43 5 23 3 29 -14 34 -11 3 -23 12 -26 20 -11 28 -111 152 -123 153 -7
0 -13 6 -13 13 0 8 -11 19 -25 25 -14 6 -25 16 -25 21 0 16 -31 41 -51 41 -26
0 -24 -19 8 -76 15 -26 28 -63 30 -82 2 -19 9 -44 14 -55 16 -28 2 -108 -17
-100 -8 3 -14 -1 -14 -11 0 -9 7 -16 15 -16 21 0 19 -3 -14 -39 -28 -30 -29
-33 -15 -59 22 -42 18 -62 -16 -75 -17 -7 -30 -18 -29 -27 3 -28 -1 -35 -11
-20 -9 13 -12 13 -21 -3 -14 -24 -25 -22 -66 18 -20 20 -44 34 -52 33 -8 -2
-30 -23 -48 -48 -18 -25 -38 -51 -44 -58 -7 -8 -15 -28 -19 -45 -5 -18 -16
-57 -25 -87 -9 -30 -20 -75 -23 -100 -9 -60 -34 -104 -75 -129 -44 -27 -50
-26 -44 5 3 16 0 28 -9 31 -18 7 -18 49 -1 56 10 4 12 42 10 171 -3 139 -1
173 13 202 9 19 17 47 19 62 2 32 35 112 46 112 4 0 10 21 14 46 6 41 3 52
-24 95 -16 27 -33 65 -37 84 -14 78 -54 50 -54 -38 0 -75 16 -122 46 -136 l23
-10 -18 -41 c-10 -22 -21 -43 -24 -47 -4 -3 -7 -14 -7 -23 0 -40 -40 -107 -75
-126 -32 -17 -38 -17 -62 -4 -35 20 -39 31 -53 130 -11 74 -10 92 4 133 9 26
16 52 16 58 0 9 42 97 76 162 30 54 158 167 242 213 63 34 161 54 207 42 16
-4 47 -8 67 -8z m-589 -257 c-3 -10 -12 -25 -19 -33 -6 -8 -19 -42 -28 -75 -9
-33 -24 -87 -33 -119 -14 -51 -15 -68 -4 -120 7 -34 16 -65 21 -71 4 -5 10
-23 14 -40 4 -16 15 -38 23 -47 20 -22 81 -34 96 -19 6 6 20 11 32 11 19 0 20
-5 19 -70 -1 -38 -7 -76 -13 -84 -12 -14 -65 -14 -113 1 -28 9 -118 82 -118
96 0 5 -6 23 -14 40 -39 90 -50 135 -48 204 1 40 5 80 10 90 5 10 16 33 25 51
9 19 17 39 17 46 0 12 36 60 73 98 9 10 17 21 17 26 0 4 10 12 23 18 12 7 23
12 24 13 1 0 0 -7 -4 -16z m737 -47 c0 -8 14 -35 30 -59 17 -25 30 -48 30 -52
0 -5 12 -33 28 -64 22 -46 27 -68 26 -122 -2 -95 -36 -192 -89 -253 -14 -16
-25 -34 -25 -39 0 -17 -42 -57 -58 -57 -9 0 -23 -6 -31 -13 -9 -7 -36 -20 -60
-27 -41 -13 -46 -13 -100 14 -31 16 -66 33 -79 39 -12 6 -25 21 -28 34 -7 26
26 101 56 128 19 17 21 16 52 -19 28 -32 37 -36 78 -36 41 0 50 4 78 36 18 20
32 38 32 39 0 2 14 25 31 50 l32 47 -5 138 c-2 76 -9 144 -15 152 -6 7 -14 28
-18 46 -6 28 -4 32 14 32 12 0 21 -6 21 -14z m-600 -866 c0 -11 -4 -20 -10
-20 -5 0 -10 9 -10 20 0 11 5 20 10 20 6 0 10 -9 10 -20z m-122 -33 c2 -10 -3
-17 -12 -17 -18 0 -29 16 -21 31 9 14 29 6 33 -14z"/>
<path d="M800 1100 c0 -15 -52 -82 -107 -139 -59 -60 -57 -75 6 -68 57 7 129
50 136 81 2 12 6 46 7 76 3 50 1 55 -19 58 -13 2 -23 -2 -23 -8z"/>
<path d="M1462 923 c-35 -7 -20 -28 23 -31 33 -3 66 10 54 22 -8 8 -54 14 -77
9z"/>
<path d="M1550 864 c0 -19 7 -28 29 -35 16 -6 32 -17 35 -25 9 -24 36 -16 36
11 0 14 -6 25 -14 25 -7 0 -25 11 -40 25 -34 32 -46 32 -46 -1z"/>
<path d="M1547 782 c-19 -21 -22 -42 -7 -42 6 0 10 5 10 10 0 19 39 10 45 -11
5 -15 1 -25 -14 -35 -27 -19 -28 -54 -2 -54 10 0 24 7 31 15 7 8 19 15 26 15
10 0 14 14 14 51 0 51 0 51 -30 47 -18 -3 -31 0 -34 9 -7 18 -20 16 -39 -5z"/>
</g>
</svg>
